# Blender v2.91.2 OBJ File: 'WoWNewAssets.blend'
# www.blender.org
mtllib WoWGrassClump.mtl
o Plane.004_Plane.006
v 0.306208 -0.172367 -0.137097
v 0.119951 -0.172367 -0.449381
v 0.325053 0.137734 -0.238408
v 0.121655 0.199223 -0.375604
v 0.052773 -0.172367 -0.197627
v 0.365057 -0.172367 -0.383884
v 0.049169 0.154367 -0.171940
v 0.397889 0.028415 -0.409128
v -0.240676 -0.171062 0.061301
v 0.243956 -0.171062 -0.061711
v -0.230188 0.295425 0.137058
v 0.269079 0.266202 -0.100795
v -0.054347 -0.171062 -0.243922
v 0.068664 -0.171062 0.240711
v -0.071241 0.400766 -0.268980
v 0.111183 0.319588 0.236139
v -0.566047 -0.170741 -0.066687
v -0.327528 -0.170741 -0.028148
v -0.533920 0.028381 -0.095905
v -0.332607 0.124197 -0.032228
v -0.466057 -0.170741 0.071842
v -0.427518 -0.170741 -0.166677
v -0.408556 0.140843 0.069931
v -0.443467 0.054653 -0.179259
v 0.470386 -0.171899 0.225841
v 0.168460 -0.171899 0.061409
v 0.476139 0.101054 0.250850
v 0.091164 0.175541 0.063351
v 0.235014 -0.171899 0.298614
v 0.399447 -0.171899 -0.003311
v 0.250438 0.138104 0.288564
v 0.399447 0.171899 -0.003311
v 0.018850 -0.171347 0.239319
v -0.321772 -0.171347 0.192693
v -0.024003 -0.001002 0.251049
v -0.275837 0.025301 0.192657
v -0.175396 -0.171347 0.390859
v -0.128770 -0.171347 0.050237
v -0.175396 0.020334 0.322726
v -0.128770 0.020334 0.050237
v -0.075054 -0.131344 0.281889
v 0.188118 -0.131344 0.181791
v -0.013662 0.145676 0.273236
v 0.140976 0.177774 0.195729
v 0.005148 -0.131344 0.096745
v 0.105246 -0.131344 0.359917
v 0.001567 0.119946 0.109386
v 0.133657 0.125591 0.407810
v -0.152901 -0.130333 -0.161823
v -0.124184 -0.130333 0.224290
v -0.152901 0.256846 -0.161823
v -0.055655 0.232563 0.239259
v 0.054841 -0.130333 0.021271
v -0.331272 -0.130333 0.049988
v -0.033386 0.257020 -0.052424
v -0.334186 0.262312 0.032232
v -0.070664 -0.130085 -0.215225
v -0.009236 -0.130085 -0.391948
v -0.026868 0.108484 -0.233243
v -0.033490 0.073502 -0.386445
v 0.045355 -0.130085 -0.271680
v -0.131367 -0.130085 -0.333107
v 0.006432 0.098765 -0.289974
v -0.085500 0.105538 -0.322557
v -0.373890 -0.130982 0.358347
v -0.207938 -0.130982 0.150178
v -0.373890 0.135241 0.358347
v -0.185902 0.183339 0.142388
v -0.397775 -0.130982 0.169073
v -0.189605 -0.130982 0.335026
v -0.396445 0.116191 0.172297
v -0.196411 0.106408 0.341505
v -0.323520 -0.130554 0.012186
v -0.242212 -0.130554 -0.241317
v -0.286963 0.009909 -0.047224
v -0.242212 0.017876 -0.193062
v -0.412998 -0.130554 -0.156304
v -0.159495 -0.130554 -0.074995
v -0.346310 0.022526 -0.150817
v -0.217414 0.008177 -0.085874
vt 1.000000 0.000000
vt 0.000000 1.000000
vt 0.000000 0.000000
vt 0.000000 0.000000
vt 1.000000 1.000000
vt 0.000000 1.000000
vt 0.000000 0.000000
vt 1.000000 1.000000
vt 0.000000 1.000000
vt 0.000000 0.000000
vt 1.000000 1.000000
vt 0.000000 1.000000
vt 1.000000 0.000000
vt 0.000000 1.000000
vt 0.000000 0.000000
vt 0.000000 0.000000
vt 1.000000 1.000000
vt 0.000000 1.000000
vt 1.000000 0.000000
vt 0.000000 1.000000
vt 0.000000 0.000000
vt 1.000000 0.000000
vt 0.000000 1.000000
vt 0.000000 0.000000
vt 1.000000 0.000000
vt 0.000000 1.000000
vt 0.000000 0.000000
vt 1.000000 0.000000
vt 0.000000 1.000000
vt 0.000000 0.000000
vt 1.000000 0.000000
vt 0.000000 1.000000
vt 0.000000 0.000000
vt 1.000000 0.000000
vt 0.000000 1.000000
vt 0.000000 0.000000
vt 1.000000 0.000000
vt 0.000000 1.000000
vt 0.000000 0.000000
vt 1.000000 0.000000
vt 0.000000 1.000000
vt 0.000000 0.000000
vt 0.000000 0.000000
vt 1.000000 1.000000
vt 0.000000 1.000000
vt 1.000000 0.000000
vt 0.000000 1.000000
vt 0.000000 0.000000
vt 1.000000 0.000000
vt 0.000000 1.000000
vt 0.000000 0.000000
vt 0.000000 0.000000
vt 1.000000 1.000000
vt 0.000000 1.000000
vt 1.000000 0.000000
vt 0.000000 1.000000
vt 0.000000 0.000000
vt 0.000000 0.000000
vt 1.000000 1.000000
vt 0.000000 1.000000
vt 1.000000 1.000000
vt 1.000000 0.000000
vt 1.000000 0.000000
vt 1.000000 0.000000
vt 1.000000 1.000000
vt 1.000000 0.000000
vt 1.000000 1.000000
vt 1.000000 1.000000
vt 1.000000 1.000000
vt 1.000000 1.000000
vt 1.000000 1.000000
vt 1.000000 1.000000
vt 1.000000 1.000000
vt 1.000000 1.000000
vt 1.000000 0.000000
vt 1.000000 1.000000
vt 1.000000 1.000000
vt 1.000000 0.000000
vt 1.000000 1.000000
vt 1.000000 0.000000
vn 0.8389 -0.2144 -0.5003
vn 0.5466 -0.0596 0.8353
vn 0.4175 -0.1548 0.8954
vn -0.9411 -0.0130 0.3378
vn -0.1572 0.1682 0.9731
vn 0.9806 -0.1814 -0.0746
vn 0.4771 0.0702 -0.8760
vn 0.8779 -0.0282 0.4781
vn 0.1349 0.1018 -0.9856
vn 0.9896 0.0481 0.1355
vn 0.3551 -0.0495 0.9335
vn -0.9342 -0.0312 0.3553
vn -0.9972 -0.0000 0.0742
vn -0.0726 -0.2023 -0.9766
vn 0.9835 -0.1807 -0.0013
vn 0.3283 -0.0197 -0.9444
vn 0.7819 0.0000 0.6234
vn -0.6460 -0.0065 0.7633
vn 0.9456 -0.1178 0.3033
vn -0.4306 0.1557 0.8890
vn 0.5843 0.1555 -0.7965
vn 0.5121 0.0242 0.8586
vn 0.2454 0.0723 0.9667
vn -0.9657 0.0860 0.2451
vn -0.3050 0.0079 0.9523
vn 0.9841 0.0785 0.1590
vn 0.4518 0.1055 -0.8858
vn 0.8906 0.0000 0.4547
vn 0.2204 -0.0517 -0.9740
vn 0.9857 0.0000 0.1687
vn 0.4434 0.0272 0.8959
vn -0.9143 0.0258 0.4042
vn -0.9552 0.1704 0.2419
vn -0.2714 -0.0455 -0.9614
vn 0.9395 0.1031 0.3266
vn 0.3325 -0.0225 -0.9428
vn 0.7578 -0.0370 0.6514
vn -0.6229 -0.0392 0.7813
vn 0.9532 -0.0934 0.2874
vn -0.3050 -0.0528 0.9509
usemtl None
s off
f 2/1/1 3/2/1 1/3/1
f 5/4/2 8/5/2 7/6/2
f 9/7/3 12/8/3 11/9/3
f 13/10/4 16/11/4 15/12/4
f 18/13/5 19/14/5 17/15/5
f 21/16/6 24/17/6 23/18/6
f 26/19/7 27/20/7 25/21/7
f 30/22/8 31/23/8 29/24/8
f 34/25/9 35/26/9 33/27/9
f 38/28/10 39/29/10 37/30/10
f 42/31/11 43/32/11 41/33/11
f 46/34/12 47/35/12 45/36/12
f 50/37/13 51/38/13 49/39/13
f 54/40/14 55/41/14 53/42/14
f 57/43/15 60/44/15 59/45/15
f 62/46/16 63/47/16 61/48/16
f 66/49/17 67/50/17 65/51/17
f 69/52/18 72/53/18 71/54/18
f 74/55/19 75/56/19 73/57/19
f 77/58/20 80/59/20 79/60/20
f 2/1/21 4/61/21 3/2/21
f 5/4/22 6/62/22 8/5/22
f 9/7/23 10/63/23 12/8/23
f 13/10/24 14/64/24 16/11/24
f 18/13/25 20/65/25 19/14/25
f 21/16/26 22/66/26 24/17/26
f 26/19/27 28/67/27 27/20/27
f 30/22/28 32/68/28 31/23/28
f 34/25/29 36/69/29 35/26/29
f 38/28/30 40/70/30 39/29/30
f 42/31/31 44/71/31 43/32/31
f 46/34/32 48/72/32 47/35/32
f 50/37/33 52/73/33 51/38/33
f 54/40/34 56/74/34 55/41/34
f 57/43/35 58/75/35 60/44/35
f 62/46/36 64/76/36 63/47/36
f 66/49/37 68/77/37 67/50/37
f 69/52/38 70/78/38 72/53/38
f 74/55/39 76/79/39 75/56/39
f 77/58/40 78/80/40 80/59/40
