# Blender v2.91.2 OBJ File: 'WoWNewAssets.blend'
# www.blender.org
mtllib WoWGrassClump.mtl
o Plane.004_Plane.006
v 0.306208 -0.172367 -0.137097
v 0.119951 -0.172367 -0.449381
v 0.325053 0.137734 -0.238408
v 0.121655 0.199223 -0.375604
v 0.115787 -0.172367 -0.446898
v 0.302043 -0.172367 -0.134613
v 0.117491 0.199223 -0.373120
v 0.320889 0.137734 -0.235925
v 0.052773 -0.172367 -0.197627
v 0.365057 -0.172367 -0.383884
v 0.049169 0.154367 -0.171940
v 0.397889 0.028415 -0.409128
v 0.367178 -0.172367 -0.380328
v 0.054893 -0.172367 -0.194072
v 0.400010 0.028415 -0.405572
v 0.051290 0.154367 -0.168385
v 0.242316 -0.171062 -0.068173
v -0.242316 -0.171062 0.054838
v 0.267439 0.266202 -0.107258
v -0.231829 0.295425 0.130596
v -0.240676 -0.171062 0.061301
v 0.243956 -0.171062 -0.061711
v -0.230188 0.295425 0.137058
v 0.269079 0.266202 -0.100795
v 0.063146 -0.171062 0.242111
v -0.059865 -0.171062 -0.242521
v 0.105666 0.319588 0.237540
v -0.076758 0.400766 -0.267579
v -0.054347 -0.171062 -0.243922
v 0.068664 -0.171062 0.240711
v -0.071241 0.400766 -0.268980
v 0.111183 0.319588 0.236139
v -0.327014 -0.170741 -0.031329
v -0.565533 -0.170741 -0.069868
v -0.332093 0.124197 -0.035409
v -0.533406 0.028381 -0.099085
v -0.566047 -0.170741 -0.066687
v -0.327528 -0.170741 -0.028148
v -0.533920 0.028381 -0.095905
v -0.332607 0.124197 -0.032228
v -0.466057 -0.170741 0.071842
v -0.427518 -0.170741 -0.166677
v -0.408556 0.140843 0.069931
v -0.443467 0.054653 -0.179259
v -0.424802 -0.170741 -0.166238
v -0.463341 -0.170741 0.072280
v -0.440752 0.054653 -0.178820
v -0.405840 0.140843 0.070369
v 0.470386 -0.171899 0.225841
v 0.168460 -0.171899 0.061409
v 0.476139 0.101054 0.250850
v 0.091164 0.175541 0.063351
v 0.166268 -0.171899 0.065435
v 0.468193 -0.171899 0.229868
v 0.088972 0.175541 0.067377
v 0.473946 0.101054 0.254876
v 0.235014 -0.171899 0.298614
v 0.399447 -0.171899 -0.003311
v 0.250438 0.138104 0.288564
v 0.399447 0.171899 -0.003311
v 0.402884 -0.171899 -0.001439
v 0.238452 -0.171899 0.300487
v 0.402884 0.171899 -0.001439
v 0.253876 0.138104 0.290436
v 0.018850 -0.171347 0.239319
v -0.321772 -0.171347 0.192693
v -0.024003 -0.001002 0.251049
v -0.275837 0.025301 0.192657
v -0.322394 -0.171347 0.197235
v 0.018228 -0.171347 0.243861
v -0.276459 0.025301 0.197199
v -0.024625 -0.001002 0.255591
v -0.175396 -0.171347 0.390859
v -0.128770 -0.171347 0.050237
v -0.175396 0.020334 0.322726
v -0.128770 0.020334 0.050237
v -0.124892 -0.171347 0.050768
v -0.171517 -0.171347 0.391390
v -0.124892 0.020334 0.050768
v -0.171517 0.020334 0.323257
v -0.075054 -0.131344 0.281889
v 0.188118 -0.131344 0.181791
v -0.013662 0.145676 0.273236
v 0.140976 0.177774 0.195729
v 0.186783 -0.131344 0.178281
v -0.076389 -0.131344 0.278380
v 0.139641 0.177774 0.192220
v -0.014997 0.145676 0.269727
v 0.005148 -0.131344 0.096745
v 0.105246 -0.131344 0.359917
v 0.001567 0.119946 0.109386
v 0.133657 0.125591 0.407810
v 0.102250 -0.131344 0.361056
v 0.002151 -0.131344 0.097884
v 0.130661 0.125591 0.408949
v -0.001429 0.119946 0.110525
v -0.119035 -0.130333 0.223907
v -0.147753 -0.130333 -0.162206
v -0.050506 0.232563 0.238876
v -0.147753 0.256846 -0.162206
v -0.152901 -0.130333 -0.161823
v -0.124184 -0.130333 0.224290
v -0.152901 0.256846 -0.161823
v -0.055655 0.232563 0.239259
v -0.331599 -0.130333 0.045592
v 0.054514 -0.130333 0.016874
v -0.334513 0.262312 0.027836
v -0.033713 0.257020 -0.056820
v 0.054841 -0.130333 0.021271
v -0.331272 -0.130333 0.049988
v -0.033386 0.257020 -0.052424
v -0.334186 0.262312 0.032232
v -0.070664 -0.130085 -0.215225
v -0.009236 -0.130085 -0.391948
v -0.026868 0.108484 -0.233243
v -0.033490 0.073502 -0.386445
v -0.011593 -0.130085 -0.392767
v -0.073020 -0.130085 -0.216045
v -0.035846 0.073502 -0.387264
v -0.029224 0.108484 -0.234062
v -0.130668 -0.130085 -0.335120
v 0.046055 -0.130085 -0.273692
v -0.084800 0.105538 -0.324569
v 0.007131 0.098765 -0.291986
v 0.045355 -0.130085 -0.271680
v -0.131367 -0.130085 -0.333107
v 0.006432 0.098765 -0.289974
v -0.085500 0.105538 -0.322557
v -0.373890 -0.130982 0.358347
v -0.207938 -0.130982 0.150178
v -0.373890 0.135241 0.358347
v -0.207938 0.135241 0.150178
v -0.210714 -0.130982 0.147965
v -0.376666 -0.130982 0.356134
v -0.210713 0.135241 0.147965
v -0.376666 0.135241 0.356134
v -0.397775 -0.130982 0.169073
v -0.189605 -0.130982 0.335026
v -0.397775 0.135241 0.169073
v -0.189605 0.135241 0.335026
v -0.191495 -0.130982 0.337396
v -0.399664 -0.130982 0.171443
v -0.191495 0.135241 0.337396
v -0.399664 0.135241 0.171443
v -0.323520 -0.130554 0.012186
v -0.242212 -0.130554 -0.241317
v -0.286963 0.009909 -0.047224
v -0.242212 0.017876 -0.193062
v -0.245592 -0.130554 -0.242401
v -0.326901 -0.130554 0.011102
v -0.245592 0.017876 -0.194146
v -0.290343 0.009909 -0.048308
v -0.412998 -0.130554 -0.156304
v -0.159495 -0.130554 -0.074995
v -0.346310 0.022526 -0.150817
v -0.217414 0.008177 -0.085874
v -0.160421 -0.130554 -0.072109
v -0.413924 -0.130554 -0.153418
v -0.218340 0.008177 -0.082988
v -0.347236 0.022526 -0.147931
vt 1.000000 0.000000
vt 0.000000 1.000000
vt 0.000000 0.000000
vt 0.000000 0.000000
vt 1.000000 1.000000
vt 0.000000 1.000000
vt 0.000000 0.000000
vt 1.000000 1.000000
vt 0.000000 1.000000
vt 1.000000 0.000000
vt 0.000000 1.000000
vt 0.000000 0.000000
vt 1.000000 0.000000
vt 0.000000 1.000000
vt 0.000000 0.000000
vt 0.000000 0.000000
vt 1.000000 1.000000
vt 0.000000 1.000000
vt 1.000000 0.000000
vt 0.000000 1.000000
vt 0.000000 0.000000
vt 0.000000 0.000000
vt 1.000000 1.000000
vt 0.000000 1.000000
vt 0.000000 0.000000
vt 1.000000 1.000000
vt 0.000000 1.000000
vt 1.000000 0.000000
vt 0.000000 1.000000
vt 0.000000 0.000000
vt 0.000000 0.000000
vt 1.000000 1.000000
vt 0.000000 1.000000
vt 1.000000 0.000000
vt 0.000000 1.000000
vt 0.000000 0.000000
vt 1.000000 0.000000
vt 0.000000 1.000000
vt 0.000000 0.000000
vt 0.000000 0.000000
vt 1.000000 1.000000
vt 0.000000 1.000000
vt 1.000000 0.000000
vt 0.000000 1.000000
vt 0.000000 0.000000
vt 0.000000 0.000000
vt 1.000000 1.000000
vt 0.000000 1.000000
vt 1.000000 0.000000
vt 0.000000 1.000000
vt 0.000000 0.000000
vt 0.000000 0.000000
vt 1.000000 1.000000
vt 0.000000 1.000000
vt 1.000000 0.000000
vt 0.000000 1.000000
vt 0.000000 0.000000
vt 0.000000 0.000000
vt 1.000000 1.000000
vt 0.000000 1.000000
vt 1.000000 0.000000
vt 0.000000 1.000000
vt 0.000000 0.000000
vt 0.000000 0.000000
vt 1.000000 1.000000
vt 0.000000 1.000000
vt 1.000000 0.000000
vt 0.000000 1.000000
vt 0.000000 0.000000
vt 0.000000 0.000000
vt 1.000000 1.000000
vt 0.000000 1.000000
vt 0.000000 0.000000
vt 1.000000 1.000000
vt 0.000000 1.000000
vt 1.000000 0.000000
vt 0.000000 1.000000
vt 0.000000 0.000000
vt 0.000000 0.000000
vt 1.000000 1.000000
vt 0.000000 1.000000
vt 1.000000 0.000000
vt 0.000000 1.000000
vt 0.000000 0.000000
vt 0.000000 0.000000
vt 1.000000 1.000000
vt 0.000000 1.000000
vt 1.000000 0.000000
vt 0.000000 1.000000
vt 0.000000 0.000000
vt 0.000000 0.000000
vt 1.000000 1.000000
vt 0.000000 1.000000
vt 1.000000 0.000000
vt 0.000000 1.000000
vt 0.000000 0.000000
vt 1.000000 0.000000
vt 0.000000 1.000000
vt 0.000000 0.000000
vt 1.000000 0.000000
vt 0.000000 1.000000
vt 0.000000 0.000000
vt 1.000000 0.000000
vt 0.000000 1.000000
vt 0.000000 0.000000
vt 1.000000 0.000000
vt 0.000000 1.000000
vt 0.000000 0.000000
vt 1.000000 0.000000
vt 0.000000 1.000000
vt 0.000000 0.000000
vt 0.000000 0.000000
vt 1.000000 1.000000
vt 0.000000 1.000000
vt 0.000000 0.000000
vt 1.000000 1.000000
vt 0.000000 1.000000
vt 1.000000 0.000000
vt 0.000000 1.000000
vt 0.000000 0.000000
vt 1.000000 1.000000
vt 1.000000 0.000000
vt 1.000000 0.000000
vt 1.000000 1.000000
vt 1.000000 1.000000
vt 1.000000 0.000000
vt 1.000000 1.000000
vt 1.000000 0.000000
vt 1.000000 0.000000
vt 1.000000 1.000000
vt 1.000000 0.000000
vt 1.000000 1.000000
vt 1.000000 1.000000
vt 1.000000 0.000000
vt 1.000000 1.000000
vt 1.000000 0.000000
vt 1.000000 1.000000
vt 1.000000 0.000000
vt 1.000000 1.000000
vt 1.000000 0.000000
vt 1.000000 1.000000
vt 1.000000 0.000000
vt 1.000000 1.000000
vt 1.000000 0.000000
vt 1.000000 0.000000
vt 1.000000 1.000000
vt 1.000000 0.000000
vt 1.000000 1.000000
vt 1.000000 0.000000
vt 1.000000 1.000000
vt 1.000000 0.000000
vt 1.000000 1.000000
vt 1.000000 1.000000
vt 1.000000 1.000000
vt 1.000000 1.000000
vt 1.000000 1.000000
vt 1.000000 1.000000
vt 1.000000 0.000000
vt 1.000000 0.000000
vt 1.000000 1.000000
vn 0.8389 -0.2144 -0.5003
vn -0.5843 -0.1555 0.7965
vn 0.5466 -0.0596 0.8353
vn -0.5121 -0.0242 -0.8586
vn -0.2454 -0.0723 -0.9667
vn 0.4175 -0.1548 0.8954
vn 0.9657 -0.0860 -0.2451
vn -0.9411 -0.0130 0.3378
vn 0.3050 -0.0079 -0.9523
vn -0.1572 0.1682 0.9731
vn 0.9806 -0.1814 -0.0746
vn -0.9841 -0.0785 -0.1590
vn 0.4771 0.0702 -0.8760
vn -0.4518 -0.1055 0.8858
vn 0.8779 -0.0282 0.4781
vn -0.8906 -0.0000 -0.4547
vn 0.1349 0.1018 -0.9856
vn -0.2204 0.0517 0.9740
vn 0.9896 0.0481 0.1355
vn -0.9857 -0.0000 -0.1687
vn 0.3551 -0.0495 0.9335
vn -0.4434 -0.0272 -0.8959
vn -0.9342 -0.0312 0.3553
vn 0.9143 -0.0258 -0.4042
vn 0.9552 -0.1704 -0.2419
vn -0.9972 -0.0000 0.0742
vn 0.2714 0.0455 0.9614
vn -0.0726 -0.2023 -0.9766
vn 0.9835 -0.1807 -0.0013
vn -0.9395 -0.1031 -0.3266
vn -0.3325 0.0225 0.9428
vn 0.3283 -0.0197 -0.9444
vn 0.7819 0.0000 0.6234
vn -0.7819 -0.0000 -0.6234
vn -0.6234 -0.0000 0.7819
vn 0.6234 0.0000 -0.7819
vn 0.9456 -0.1178 0.3033
vn -0.9532 0.0934 -0.2874
vn -0.4306 0.1557 0.8890
vn 0.3050 0.0528 -0.9509
vn 0.5843 0.1555 -0.7965
vn -0.8389 0.2144 0.5003
vn 0.5121 0.0242 0.8586
vn -0.5466 0.0596 -0.8353
vn -0.4175 0.1548 -0.8954
vn 0.2454 0.0723 0.9667
vn 0.9411 0.0130 -0.3378
vn -0.9657 0.0860 0.2451
vn 0.1572 -0.1682 -0.9731
vn -0.3050 0.0079 0.9523
vn 0.9841 0.0785 0.1590
vn -0.9806 0.1814 0.0746
vn 0.4518 0.1055 -0.8858
vn -0.4771 -0.0702 0.8760
vn 0.8906 0.0000 0.4547
vn -0.8779 0.0282 -0.4781
vn 0.2204 -0.0517 -0.9740
vn -0.1349 -0.1018 0.9856
vn 0.9857 0.0000 0.1687
vn -0.9896 -0.0482 -0.1355
vn 0.4434 0.0272 0.8959
vn -0.3551 0.0495 -0.9335
vn -0.9143 0.0258 0.4042
vn 0.9342 0.0312 -0.3553
vn 0.9972 0.0000 -0.0742
vn -0.9552 0.1704 0.2419
vn 0.0726 0.2023 0.9766
vn -0.2714 -0.0455 -0.9614
vn 0.9395 0.1031 0.3266
vn -0.9835 0.1807 0.0013
vn -0.3283 0.0197 0.9444
vn 0.3325 -0.0225 -0.9428
vn 0.9532 -0.0934 0.2874
vn -0.9456 0.1178 -0.3033
vn -0.3050 -0.0528 0.9509
vn 0.4306 -0.1557 -0.8890
usemtl None
s off
f 2/1/1 3/2/1 1/3/1
f 5/4/2 8/5/2 7/6/2
f 9/7/3 12/8/3 11/9/3
f 14/10/4 15/11/4 13/12/4
f 18/13/5 19/14/5 17/15/5
f 21/16/6 24/17/6 23/18/6
f 26/19/7 27/20/7 25/21/7
f 29/22/8 32/23/8 31/24/8
f 33/25/9 36/26/9 35/27/9
f 38/28/10 39/29/10 37/30/10
f 41/31/11 44/32/11 43/33/11
f 46/34/12 47/35/12 45/36/12
f 50/37/13 51/38/13 49/39/13
f 53/40/14 56/41/14 55/42/14
f 58/43/15 59/44/15 57/45/15
f 61/46/16 64/47/16 63/48/16
f 66/49/17 67/50/17 65/51/17
f 69/52/18 72/53/18 71/54/18
f 74/55/19 75/56/19 73/57/19
f 77/58/20 80/59/20 79/60/20
f 82/61/21 83/62/21 81/63/21
f 85/64/22 88/65/22 87/66/22
f 90/67/23 91/68/23 89/69/23
f 93/70/24 96/71/24 95/72/24
f 97/73/25 100/74/25 99/75/25
f 102/76/26 103/77/26 101/78/26
f 105/79/27 108/80/27 107/81/27
f 110/82/28 111/83/28 109/84/28
f 113/85/29 116/86/29 115/87/29
f 118/88/30 119/89/30 117/90/30
f 121/91/31 124/92/31 123/93/31
f 126/94/32 127/95/32 125/96/32
f 130/97/33 131/98/33 129/99/33
f 134/100/34 135/101/34 133/102/34
f 138/103/35 139/104/35 137/105/35
f 142/106/36 143/107/36 141/108/36
f 146/109/37 147/110/37 145/111/37
f 149/112/38 152/113/38 151/114/38
f 153/115/39 156/116/39 155/117/39
f 158/118/40 159/119/40 157/120/40
f 2/1/41 4/121/41 3/2/41
f 5/4/42 6/122/42 8/5/42
f 9/7/43 10/123/43 12/8/43
f 14/10/44 16/124/44 15/11/44
f 18/13/45 20/125/45 19/14/45
f 21/16/46 22/126/46 24/17/46
f 26/19/47 28/127/47 27/20/47
f 29/22/48 30/128/48 32/23/48
f 33/25/49 34/129/49 36/26/49
f 38/28/50 40/130/50 39/29/50
f 41/31/51 42/131/51 44/32/51
f 46/34/52 48/132/52 47/35/52
f 50/37/53 52/133/53 51/38/53
f 53/40/54 54/134/54 56/41/54
f 58/43/55 60/135/55 59/44/55
f 61/46/56 62/136/56 64/47/56
f 66/49/57 68/137/57 67/50/57
f 69/52/58 70/138/58 72/53/58
f 74/55/59 76/139/59 75/56/59
f 77/58/60 78/140/60 80/59/60
f 82/61/61 84/141/61 83/62/61
f 85/64/62 86/142/62 88/65/62
f 90/67/63 92/143/63 91/68/63
f 93/70/64 94/144/64 96/71/64
f 97/73/65 98/145/65 100/74/65
f 102/76/66 104/146/66 103/77/66
f 105/79/67 106/147/67 108/80/67
f 110/82/68 112/148/68 111/83/68
f 113/85/69 114/149/69 116/86/69
f 118/88/70 120/150/70 119/89/70
f 121/91/71 122/151/71 124/92/71
f 126/94/72 128/152/72 127/95/72
f 130/97/33 132/153/33 131/98/33
f 134/100/34 136/154/34 135/101/34
f 138/103/35 140/155/35 139/104/35
f 142/106/36 144/156/36 143/107/36
f 146/109/73 148/157/73 147/110/73
f 149/112/74 150/158/74 152/113/74
f 153/115/75 154/159/75 156/116/75
f 158/118/76 160/160/76 159/119/76
