# Blender v2.91.2 OBJ File: 'WoWAssets.blend'
# www.blender.org
mtllib WoWTGiantMushroom.mtl
o Sphere_Sphere.006
v 0.000000 1.664028 -1.036176
v -0.000000 2.014313 -0.000000
v 0.430854 1.926187 -0.427960
v 0.676915 1.798076 -0.676915
v 0.732687 1.664028 -0.732687
v 0.608121 1.926187 -0.000000
v 0.957302 1.798076 -0.000000
v 1.036176 1.664028 -0.000000
v 0.430854 1.926187 0.427960
v 0.676915 1.798076 0.676914
v 0.732687 1.664028 0.732687
v 0.002894 1.926187 0.605227
v 0.000000 1.798076 0.957301
v 0.000000 1.664028 1.036176
v -0.425066 1.926187 0.427960
v -0.676914 1.798076 0.676914
v -0.732687 1.664028 0.732687
v -0.602333 1.926187 -0.000000
v -0.957302 1.798076 -0.000000
v -1.036176 1.664028 -0.000000
v -0.425066 1.926187 -0.427960
v -0.676914 1.798076 -0.676915
v -0.732687 1.664028 -0.732687
v 0.002894 1.926187 -0.605227
v -0.000000 1.798076 -0.957302
v 0.000000 0.000000 -0.288522
v -0.000000 1.678129 -0.116616
v 0.196300 0.973562 -0.048038
v 0.192356 1.114424 -0.040137
v 0.196300 0.973562 0.048039
v 0.192356 1.114424 0.040137
v -0.034462 0.456603 0.225159
v -0.059709 0.632335 0.193854
v -0.177762 0.456603 0.142425
v -0.138028 0.632335 0.148637
v -0.249868 0.000000 -0.144261
v -0.100993 1.678129 -0.058308
v 0.100993 1.678129 -0.058308
v 0.249868 0.000000 -0.144261
v 0.249868 0.000000 0.144261
v 0.100993 1.678129 0.058308
v 0.597933 1.264768 -0.164908
v 0.659745 1.248420 -0.167408
v 0.659745 1.248420 -0.137001
v 0.597933 1.264768 -0.139502
v -0.000000 1.678129 0.116616
v -0.000000 0.000000 0.288522
v -0.249868 0.000000 0.144261
v -0.100993 1.678129 0.058308
v -0.342622 0.946765 0.626605
v -0.362833 0.939477 0.689130
v -0.415387 0.939477 0.658788
v -0.371344 0.946765 0.610022
v 0.628845 1.238491 -0.503364
v 0.628845 1.362211 -0.137388
v 0.795519 1.308661 -0.303045
v 0.887629 1.238491 -0.396172
v 0.864136 1.308661 -0.137388
v 0.994820 1.238491 -0.137388
v 0.795519 1.308661 0.028268
v 0.887629 1.238491 0.121395
v 0.629862 1.308661 0.096885
v 0.628845 1.238491 0.228587
v 0.464206 1.308661 0.028268
v 0.370061 1.238491 0.121395
v 0.395589 1.308661 -0.137388
v 0.262870 1.238491 -0.137388
v 0.464206 1.308661 -0.303045
v 0.370061 1.238491 -0.396172
v 0.629862 1.308661 -0.371662
v -0.354297 0.898023 0.259660
v -0.354297 1.021743 0.625636
v -0.187624 0.968194 0.459979
v -0.095513 0.898023 0.366852
v -0.119006 0.968194 0.625636
v 0.011678 0.898023 0.625636
v -0.187624 0.968194 0.791292
v -0.095513 0.898023 0.884419
v -0.353280 0.968194 0.859909
v -0.354297 0.898023 0.991611
v -0.518936 0.968194 0.791292
v -0.613081 0.898023 0.884419
v -0.587554 0.968194 0.625636
v -0.720272 0.898023 0.625636
v -0.518936 0.968194 0.459979
v -0.613081 0.898023 0.366852
v -0.353280 0.968194 0.391362
vt 0.750000 0.750000
vt 0.625000 0.625000
vt 0.750000 0.625000
vt 0.625000 0.500000
vt 0.750000 0.500000
vt 0.625000 0.750000
vt 0.500000 0.625000
vt 0.500000 0.750000
vt 0.437500 1.000000
vt 0.375000 0.750000
vt 0.500000 0.500000
vt 0.375000 0.500000
vt 0.312500 1.000000
vt 0.250000 0.750000
vt 0.375000 0.625000
vt 0.250000 0.500000
vt 0.187500 1.000000
vt 0.125000 0.750000
vt 0.250000 0.625000
vt 0.125000 0.625000
vt 0.062500 1.000000
vt 0.000000 0.750000
vt 0.125000 0.500000
vt 0.000000 0.625000
vt 1.000000 0.750000
vt 0.937500 1.000000
vt 0.875000 0.750000
vt 0.000000 0.500000
vt 1.000000 0.500000
vt 0.875000 0.625000
vt 0.875000 0.500000
vt 0.812500 1.000000
vt 1.000000 0.625000
vt 0.687500 1.000000
vt 0.562500 1.000000
vt 0.042154 0.130000
vt 0.250000 0.010000
vt 0.457846 0.130000
vt 0.770369 0.987350
vt 0.693976 0.512650
vt 0.806024 0.512650
vt 0.478518 0.509962
vt 0.383111 0.990038
vt 0.354815 0.509962
vt 0.375000 0.750000
vt 0.500000 0.500000
vt 0.500000 0.750000
vt 0.437500 1.000000
vt 0.250000 0.750000
vt 0.375000 0.500000
vt 0.312500 1.000000
vt 0.250000 0.500000
vt 0.125000 0.750000
vt 0.125000 0.500000
vt 0.187500 1.000000
vt 0.000000 0.750000
vt 0.000000 0.500000
vt 0.062500 1.000000
vt 1.000000 0.750000
vt 0.875000 0.500000
vt 1.000000 0.500000
vt 0.937500 1.000000
vt 0.875000 0.750000
vt 0.750000 0.500000
vt 0.812500 1.000000
vt 0.750000 0.750000
vt 0.687500 1.000000
vt 0.625000 0.750000
vt 0.625000 0.500000
vt 0.562500 1.000000
vt 0.375000 0.750000
vt 0.500000 0.500000
vt 0.500000 0.750000
vt 0.437500 1.000000
vt 0.250000 0.750000
vt 0.375000 0.500000
vt 0.312500 1.000000
vt 0.250000 0.500000
vt 0.125000 0.750000
vt 0.125000 0.500000
vt 0.187500 1.000000
vt 0.000000 0.750000
vt 0.000000 0.500000
vt 0.062500 1.000000
vt 1.000000 0.750000
vt 0.875000 0.500000
vt 1.000000 0.500000
vt 0.937500 1.000000
vt 0.875000 0.750000
vt 0.750000 0.500000
vt 0.812500 1.000000
vt 0.750000 0.750000
vt 0.687500 1.000000
vt 0.625000 0.750000
vt 0.625000 0.500000
vt 0.562500 1.000000
vt 0.457846 0.370000
vt 0.250000 0.490000
vt 0.042154 0.370000
vt 0.729631 0.987350
vt 0.450222 0.990038
vt 1.000000 1.000000
vt 0.833333 0.500000
vt 1.000000 0.500000
vt 0.729631 0.987350
vt 0.666667 1.000000
vt 0.500000 0.500000
vt 0.666667 0.500000
vt 0.450222 0.990038
vt 0.478518 0.509962
vt 0.333333 1.000000
vt 0.166667 0.500000
vt 0.333333 0.500000
vt 0.166667 1.000000
vt -0.000000 0.500000
vt 0.750000 0.010000
vt 0.542154 0.370000
vt 0.750000 0.490000
vt 0.806024 0.512650
vt 0.833333 1.000000
vt 0.770369 0.987350
vt 0.693976 0.512650
vt 0.500000 1.000000
vt 0.383111 0.990038
vt 0.354815 0.509962
vt 0.957846 0.370000
vt 0.957846 0.130000
vt -0.000000 1.000000
vt 0.542154 0.130000
vn 0.1407 0.9300 -0.3396
vn 0.3362 0.4776 -0.8117
vn 0.3410 0.9294 -0.1412
vn 0.1432 0.9879 0.0593
vn 0.8117 0.4776 -0.3362
vn 0.8117 0.4776 0.3362
vn 0.0595 0.9879 0.1436
vn 0.3410 0.9294 0.1412
vn 0.3362 0.4776 0.8117
vn -0.0597 0.9878 0.1441
vn 0.1407 0.9300 0.3396
vn -0.1398 0.9309 0.3376
vn -0.1445 0.9877 0.0599
vn -0.3362 0.4776 0.8117
vn -0.3362 0.9315 0.1392
vn -0.1445 0.9877 -0.0599
vn -0.8117 0.4776 0.3362
vn -0.8117 0.4776 -0.3362
vn -0.0597 0.9878 -0.1441
vn -0.3362 0.9315 -0.1392
vn 0.0595 0.9879 -0.1436
vn -0.1398 0.9309 -0.3376
vn -0.3362 0.4776 -0.8117
vn 0.0000 -1.0000 0.0000
vn 0.1432 0.9879 -0.0593
vn 0.0000 1.0000 -0.0000
vn 0.2557 0.9668 0.0000
vn -0.0563 0.9936 0.0976
vn 0.4642 0.8646 0.1923
vn 0.2210 0.9710 0.0915
vn 0.1916 0.8656 0.4627
vn 0.0918 0.9708 0.2215
vn -0.1907 0.8670 0.4604
vn -0.0921 0.9706 0.2223
vn -0.4589 0.8679 0.1901
vn -0.2228 0.9705 0.0923
vn -0.4589 0.8679 -0.1901
vn -0.2228 0.9705 -0.0923
vn -0.1907 0.8670 -0.4604
vn -0.0921 0.9706 -0.2223
vn 0.0918 0.9708 -0.2215
vn 0.1916 0.8656 -0.4627
vn 0.2210 0.9710 -0.0915
vn 0.4642 0.8646 -0.1923
vn -0.0564 0.9936 0.0976
vn 0.4980 0.0884 -0.8626
vn 0.1269 0.6007 0.7893
vn 0.4980 0.0884 0.8626
vn 0.8861 0.2016 0.4173
vn -0.9961 0.0884 0.0000
vn -0.4980 0.0884 -0.8626
vn 0.5491 0.0621 -0.8335
vn 0.9985 0.0549 0.0000
vn 0.9871 0.1600 0.0000
vn 0.8121 0.1015 0.5746
vn 0.5101 -0.8601 0.0000
vn -0.3476 0.9377 0.0000
vn -0.2748 0.0462 -0.9604
vn -0.4590 0.0915 0.8837
vn -0.4983 0.0822 0.8631
vn -0.4979 0.0921 0.8623
vn -0.5611 0.0919 0.8226
vn -0.7216 0.3452 -0.6001
vn -0.3245 -0.7608 0.5621
vn 0.2601 0.8540 -0.4505
vn 0.3381 0.0621 0.9391
vn 0.8805 0.3452 0.3249
vn 0.8121 0.1015 -0.5746
vn 0.5491 0.0621 0.8335
vn -0.1385 -0.3840 -0.9129
vn -0.4319 0.0919 0.8972
vn -0.5358 0.0915 0.8394
vn -0.8044 0.2016 -0.5588
usemtl MushroomCap
s off
f 24/1/1 4/2/1 25/3/1
f 25/3/2 5/4/2 1/5/2
f 3/6/3 7/7/3 4/2/3
f 6/8/4 2/9/4 9/10/4
f 4/2/5 8/11/5 5/4/5
f 7/7/6 11/12/6 8/11/6
f 9/10/7 2/13/7 12/14/7
f 7/7/8 9/10/8 10/15/8
f 10/15/9 14/16/9 11/12/9
f 12/14/10 2/17/10 15/18/10
f 10/15/11 12/14/11 13/19/11
f 13/19/12 15/18/12 16/20/12
f 15/18/13 2/21/13 18/22/13
f 13/19/14 17/23/14 14/16/14
f 16/20/15 18/22/15 19/24/15
f 18/25/16 2/26/16 21/27/16
f 16/20/17 20/28/17 17/23/17
f 20/29/18 22/30/18 23/31/18
f 21/27/19 2/32/19 24/1/19
f 18/25/20 22/30/20 19/33/20
f 24/1/21 2/34/21 3/6/21
f 21/27/22 25/3/22 22/30/22
f 23/31/23 25/3/23 1/5/23
f 14/16/24 23/31/24 1/5/24
f 23/31/24 17/23/24 20/29/24
f 14/16/24 5/4/24 11/12/24
f 11/12/24 5/4/24 8/11/24
f 3/6/25 2/35/25 6/8/25
f 49/36/26 46/37/26 41/38/26
f 42/39/27 44/40/27 43/41/27
f 51/42/28 53/43/28 52/44/28
f 60/45/29 59/46/29 58/47/29
f 58/47/30 55/48/30 60/45/30
f 62/49/31 61/50/31 60/45/31
f 60/45/32 55/51/32 62/49/32
f 63/52/33 64/53/33 65/54/33
f 62/49/34 55/55/34 64/53/34
f 65/54/35 66/56/35 67/57/35
f 64/53/36 55/58/36 66/56/36
f 66/59/37 69/60/37 67/61/37
f 66/59/38 55/62/38 68/63/38
f 68/63/39 54/64/39 69/60/39
f 68/63/40 55/65/40 70/66/40
f 70/66/41 55/67/41 56/68/41
f 70/66/42 57/69/42 54/64/42
f 63/52/24 69/60/24 54/64/24
f 69/60/24 65/54/24 67/61/24
f 63/52/24 57/69/24 61/50/24
f 61/50/24 57/69/24 59/46/24
f 56/68/43 55/70/43 58/47/43
f 56/68/44 59/46/44 57/69/44
f 77/71/29 76/72/29 75/73/29
f 75/73/30 72/74/30 77/71/30
f 79/75/31 78/76/31 77/71/31
f 77/71/32 72/77/32 79/75/32
f 80/78/33 81/79/33 82/80/33
f 79/75/34 72/81/34 81/79/34
f 82/80/35 83/82/35 84/83/35
f 81/79/36 72/84/36 83/82/36
f 83/85/37 86/86/37 84/87/37
f 83/85/38 72/88/38 85/89/38
f 85/89/39 71/90/39 86/86/39
f 85/89/40 72/91/40 87/92/40
f 87/92/41 72/93/41 73/94/41
f 87/92/42 74/95/42 71/90/42
f 80/78/24 86/86/24 71/90/24
f 86/86/24 82/80/24 84/87/24
f 71/90/24 78/76/24 80/78/24
f 78/76/24 74/95/24 76/72/24
f 73/94/43 72/96/43 75/73/43
f 73/94/44 76/72/44 74/95/44
f 24/1/1 3/6/1 4/2/1
f 25/3/2 4/2/2 5/4/2
f 3/6/3 6/8/3 7/7/3
f 4/2/5 7/7/5 8/11/5
f 7/7/6 10/15/6 11/12/6
f 7/7/8 6/8/8 9/10/8
f 10/15/9 13/19/9 14/16/9
f 10/15/11 9/10/11 12/14/11
f 13/19/12 12/14/12 15/18/12
f 13/19/14 16/20/14 17/23/14
f 16/20/15 15/18/15 18/22/15
f 16/20/17 19/24/17 20/28/17
f 20/29/18 19/33/18 22/30/18
f 18/25/20 21/27/20 22/30/20
f 21/27/22 24/1/22 25/3/22
f 23/31/23 22/30/23 25/3/23
f 14/16/24 17/23/24 23/31/24
f 14/16/24 1/5/24 5/4/24
f 41/38/26 38/97/26 49/36/26
f 38/97/26 27/98/26 49/36/26
f 27/98/26 37/99/26 49/36/26
f 42/39/27 45/100/27 44/40/27
f 51/42/45 50/101/45 53/43/45
f 60/45/29 61/50/29 59/46/29
f 62/49/31 63/52/31 61/50/31
f 63/52/33 62/49/33 64/53/33
f 65/54/35 64/53/35 66/56/35
f 66/59/37 68/63/37 69/60/37
f 68/63/39 70/66/39 54/64/39
f 70/66/42 56/68/42 57/69/42
f 63/52/24 65/54/24 69/60/24
f 63/52/24 54/64/24 57/69/24
f 56/68/44 58/47/44 59/46/44
f 77/71/29 78/76/29 76/72/29
f 79/75/31 80/78/31 78/76/31
f 80/78/33 79/75/33 81/79/33
f 82/80/35 81/79/35 83/82/35
f 83/85/37 85/89/37 86/86/37
f 85/89/39 87/92/39 71/90/39
f 87/92/42 73/94/42 74/95/42
f 80/78/24 82/80/24 86/86/24
f 71/90/24 74/95/24 78/76/24
f 73/94/44 75/73/44 76/72/44
usemtl Mushroom_Base
f 27/102/46 39/103/46 26/104/46
f 31/105/47 44/40/47 45/100/47
f 41/106/48 47/107/48 40/108/48
f 33/109/49 51/42/49 32/110/49
f 49/111/50 36/112/50 48/113/50
f 37/114/51 26/115/51 36/112/51
f 47/116/24 36/117/24 26/118/24
f 28/119/52 38/120/52 29/121/52
f 28/119/53 40/108/53 39/103/53
f 29/121/54 41/106/54 31/105/54
f 30/122/55 41/106/55 40/108/55
f 28/119/56 44/40/56 30/122/56
f 29/121/57 45/100/57 42/39/57
f 29/121/58 43/41/58 28/119/58
f 32/110/59 46/123/59 33/109/59
f 32/110/60 48/113/60 47/107/60
f 33/109/61 49/111/61 35/124/61
f 34/125/62 49/111/62 48/113/62
f 35/124/63 52/44/63 53/43/63
f 34/125/64 51/42/64 52/44/64
f 35/124/65 50/101/65 33/109/65
f 47/116/24 39/126/24 40/127/24
f 27/102/46 38/120/46 39/103/46
f 31/105/66 30/122/66 44/40/66
f 41/106/48 46/123/48 47/107/48
f 33/109/67 50/101/67 51/42/67
f 49/111/50 37/114/50 36/112/50
f 37/114/51 27/128/51 26/115/51
f 47/116/24 48/129/24 36/117/24
f 28/119/68 39/103/68 38/120/68
f 28/119/53 30/122/53 40/108/53
f 29/121/54 38/120/54 41/106/54
f 30/122/69 31/105/69 41/106/69
f 28/119/56 43/41/56 44/40/56
f 29/121/57 31/105/57 45/100/57
f 29/121/70 42/39/70 43/41/70
f 32/110/71 47/107/71 46/123/71
f 32/110/60 34/125/60 48/113/60
f 33/109/61 46/123/61 49/111/61
f 34/125/72 35/124/72 49/111/72
f 35/124/73 34/125/73 52/44/73
f 34/125/64 32/110/64 51/42/64
f 35/124/65 53/43/65 50/101/65
f 47/116/24 26/118/24 39/126/24
