# Blender v2.91.2 OBJ File: ''
# www.blender.org
mtllib WoWNightPlant1.mtl
o Cylinder
v 0.000000 -0.200000 -0.200000
v 0.000000 0.501752 -0.200000
v 0.117557 -0.200000 -0.161803
v 0.117557 0.501752 -0.161803
v 0.190211 -0.200000 -0.061803
v 0.190211 0.501752 -0.061803
v 0.190211 -0.200000 0.061803
v 0.190211 0.501752 0.061803
v 0.117557 -0.200000 0.161803
v 0.117557 0.501752 0.161803
v -0.000000 -0.200000 0.200000
v -0.000000 0.501752 0.200000
v -0.117557 -0.200000 0.161803
v -0.117557 0.501752 0.161803
v -0.190211 -0.200000 0.061803
v -0.190211 0.501752 0.061803
v -0.190211 -0.200000 -0.061803
v -0.190211 0.501752 -0.061803
v -0.117557 -0.200000 -0.161803
v -0.117557 0.501752 -0.161803
v 0.117557 0.748874 -0.347843
v 0.000000 0.721865 -0.374852
v 0.190211 0.819584 -0.277133
v 0.190211 0.906988 -0.189729
v 0.117557 0.977698 -0.119019
v 0.000000 1.004707 -0.092010
v -0.117557 0.977698 -0.119019
v -0.190211 0.906988 -0.189729
v -0.190211 0.819584 -0.277133
v -0.117557 0.748874 -0.347843
v 0.117557 1.131681 -0.502710
v 0.000000 1.135231 -0.540741
v 0.190211 1.122388 -0.403142
v 0.190211 1.110901 -0.280071
v 0.117557 1.101608 -0.180503
v 0.000000 1.098058 -0.142472
v -0.117557 1.101608 -0.180503
v -0.190211 1.110901 -0.280071
v -0.190211 1.122388 -0.403142
v -0.117557 1.131681 -0.502710
v 0.117557 1.484415 -0.390544
v 0.000000 1.511424 -0.417553
v 0.190211 1.413704 -0.319834
v 0.190211 1.326301 -0.232430
v 0.117557 1.255590 -0.161720
v 0.000000 1.228581 -0.134711
v -0.117557 1.255590 -0.161720
v -0.190211 1.326301 -0.232430
v -0.190211 1.413704 -0.319834
v -0.117557 1.484415 -0.390544
v 0.117557 1.720693 -0.083099
v 0.000000 1.747702 -0.110108
v 0.190211 1.649982 -0.012388
v 0.190211 1.562579 0.075015
v 0.117557 1.491868 0.145726
v 0.000000 1.464859 0.172735
v -0.117557 1.491868 0.145726
v -0.190211 1.562579 0.075015
v -0.190211 1.649982 -0.012388
v -0.117557 1.720693 -0.083099
v 0.070392 1.616387 0.527085
v 0.000000 1.634565 0.540966
v 0.113897 1.568795 0.490745
v 0.113897 1.509970 0.445826
v 0.070392 1.462379 0.409486
v 0.000000 1.444200 0.395605
v -0.070392 1.462379 0.409486
v -0.113897 1.509970 0.445826
v -0.113897 1.568795 0.490745
v -0.070392 1.616387 0.527085
v 0.037452 1.302992 0.661600
v 0.000000 1.306476 0.673260
v 0.060598 1.293873 0.631075
v 0.060598 1.282601 0.593344
v 0.037452 1.273481 0.562819
v 0.000000 1.269998 0.551159
v -0.037452 1.273481 0.562819
v -0.060598 1.282601 0.593344
v -0.060598 1.293873 0.631075
v -0.037451 1.302992 0.661600
v 0.016106 1.089564 0.481143
v 0.000000 1.084428 0.482149
v 0.026061 1.103009 0.478512
v 0.026061 1.119629 0.475259
v 0.016106 1.133074 0.472627
v 0.000000 1.138210 0.471622
v -0.016106 1.133074 0.472627
v -0.026060 1.119629 0.475259
v -0.026060 1.103009 0.478512
v -0.016106 1.089564 0.481143
v 0.006037 0.996810 0.311961
v 0.000000 0.994885 0.312338
v 0.009768 1.001850 0.310975
v 0.009768 1.008079 0.309756
v 0.006037 1.013119 0.308769
v 0.000000 1.015044 0.308393
v -0.006037 1.013119 0.308769
v -0.009768 1.008079 0.309756
v -0.009768 1.001850 0.310975
v -0.006037 0.996810 0.311961
v 0.000000 -0.541607 -0.344336
v 0.202395 -0.541607 -0.278573
v 0.327483 -0.541607 -0.106406
v 0.327483 -0.541607 0.106406
v 0.202395 -0.541607 0.278573
v -0.000000 -0.541607 0.344336
v -0.202395 -0.541607 0.278573
v -0.327483 -0.541607 0.106406
v -0.327483 -0.541607 -0.106406
v -0.202395 -0.541607 -0.278573
vt 1.000000 1.000000
vt 0.900000 0.500000
vt 1.000000 0.500000
vt 0.900000 1.000000
vt 0.800000 0.500000
vt 0.800000 1.000000
vt 0.700000 0.500000
vt 0.700000 1.000000
vt 0.600000 0.500000
vt 0.600000 1.000000
vt 0.500000 0.500000
vt 0.500000 1.000000
vt 0.400000 0.500000
vt 0.400000 1.000000
vt 0.300000 0.500000
vt 0.300000 1.000000
vt 0.200000 0.500000
vt 0.800000 1.000000
vt 0.200000 1.000000
vt 0.100000 0.500000
vt 0.100000 1.000000
vt -0.000000 0.500000
vt 0.100000 0.500000
vt -0.000000 1.000000
vt 0.100000 1.000000
vt -0.000000 1.000000
vt -0.000000 1.000000
vt 0.100000 1.000000
vt 0.200000 1.000000
vt 0.300000 1.000000
vt 0.400000 1.000000
vt 0.500000 1.000000
vt 0.600000 1.000000
vt 0.900000 1.000000
vt 0.700000 1.000000
vt 0.300000 1.000000
vt 0.400000 1.000000
vt 0.300000 1.000000
vt 0.400000 1.000000
vt 0.600000 1.000000
vt 1.000000 1.000000
vt 0.900000 1.000000
vt 0.200000 1.000000
vt 0.500000 1.000000
vt 0.800000 1.000000
vt 0.700000 1.000000
vt 0.600000 1.000000
vt 0.700000 1.000000
vt 0.600000 1.000000
vt 1.000000 1.000000
vt 0.900000 1.000000
vt 0.200000 1.000000
vt 0.500000 1.000000
vt 0.800000 1.000000
vt 0.100000 1.000000
vt 0.700000 1.000000
vt -0.000000 1.000000
vt 0.900000 1.000000
vt 1.000000 1.000000
vt 0.900000 1.000000
vt 1.000000 1.000000
vt 0.200000 1.000000
vt 0.500000 1.000000
vt 0.800000 1.000000
vt 0.100000 1.000000
vt 0.400000 1.000000
vt -0.000000 1.000000
vt 0.300000 1.000000
vt 0.500000 1.000000
vt 0.600000 1.000000
vt 0.500000 1.000000
vt 0.200000 1.000000
vt 0.600000 1.000000
vt 0.800000 1.000000
vt 0.100000 1.000000
vt 0.400000 1.000000
vt 0.700000 1.000000
vt -0.000000 1.000000
vt 0.300000 1.000000
vt 0.800000 1.000000
vt 0.900000 1.000000
vt 0.800000 1.000000
vt 0.900000 1.000000
vt 0.100000 1.000000
vt 0.400000 1.000000
vt 0.700000 1.000000
vt -0.000000 1.000000
vt 0.300000 1.000000
vt 1.000000 1.000000
vt 0.200000 1.000000
vt 0.100000 1.000000
vt 0.200000 1.000000
vt 0.100000 1.000000
vt 0.400000 1.000000
vt 0.700000 1.000000
vt -0.000000 1.000000
vt 0.300000 1.000000
vt 0.600000 1.000000
vt 0.200000 1.000000
vt 0.500000 1.000000
vt 0.250000 0.490000
vt 0.021746 0.324164
vt 0.391068 0.055836
vt 0.500000 1.000000
vt 0.400000 1.000000
vt 0.700000 1.000000
vt -0.000000 1.000000
vt 0.300000 1.000000
vt 0.600000 1.000000
vt 1.000000 1.000000
vt 0.900000 1.000000
vt 0.800000 1.000000
vt 0.978254 0.175836
vt 0.521746 0.175836
vt 0.608932 0.444164
vt 0.200000 0.500000
vt 0.300000 0.500000
vt 0.400000 0.500000
vt 0.500000 0.500000
vt 0.600000 0.500000
vt 0.700000 0.500000
vt 1.000000 0.500000
vt 0.800000 0.500000
vt 0.900000 0.500000
vt -0.000000 0.500000
vt 1.000000 1.000000
vt 0.478254 0.324164
vt 0.391068 0.444164
vt 0.108932 0.444164
vt 0.021746 0.175836
vt 0.108932 0.055836
vt 0.250000 0.010000
vt 0.478254 0.175836
vt 1.000000 1.000000
vt 0.750000 0.490000
vt 0.891068 0.444164
vt 0.978254 0.324164
vt 0.891068 0.055836
vt 0.750000 0.010000
vt 0.608932 0.055836
vt 0.521746 0.324164
vn 0.3090 0.0000 -0.9511
vn 0.8090 0.0000 -0.5878
vn 1.0000 0.0000 0.0000
vn 0.8090 0.0000 0.5878
vn 0.3090 0.0000 0.9511
vn -0.3090 0.0000 0.9511
vn -0.8090 0.0000 0.5878
vn -1.0000 0.0000 0.0000
vn 0.7516 -0.3700 -0.5461
vn -0.8090 0.0000 -0.5878
vn -0.3090 0.0000 -0.9511
vn -0.2867 0.3729 -0.8825
vn -0.2776 -0.3578 -0.8916
vn -0.3072 -0.5919 -0.7451
vn -0.8063 -0.3558 -0.4726
vn -0.8015 0.3154 0.5081
vn -0.3001 0.4847 0.8216
vn 0.2705 0.4834 0.8326
vn 0.7644 0.3277 0.5553
vn 0.2513 -0.5822 -0.7733
vn -0.7575 -0.1410 0.6374
vn -0.7685 0.2592 0.5850
vn 0.7936 0.2704 0.5450
vn 0.2866 -0.3593 -0.8881
vn 0.2973 0.4540 0.8399
vn 0.7863 -0.2374 -0.5705
vn -0.7740 -0.2375 -0.5870
vn -0.2664 0.4284 0.8634
vn 0.8066 -0.4686 0.3602
vn 0.8089 -0.0712 0.5836
vn 0.3026 0.2888 -0.9083
vn 0.3089 -0.0565 0.9494
vn 0.8041 0.1634 -0.5715
vn -0.7740 0.1919 -0.6034
vn -0.2479 -0.1173 0.9617
vn -0.2784 0.2989 -0.9128
vn 0.2795 0.9426 0.1827
vn 0.3067 0.7547 -0.5800
vn 0.3067 -0.7547 0.5800
vn 0.8066 0.4686 -0.3602
vn -0.8066 0.4686 -0.3602
vn -0.3066 -0.7547 0.5800
vn -0.3067 0.7547 -0.5800
vn -0.8066 -0.4686 0.3602
vn 0.2822 -0.6390 -0.7156
vn -0.9688 0.1752 0.1752
vn 0.2655 -0.9600 -0.0890
vn 0.7965 0.5661 0.2122
vn -0.5904 0.7868 0.1801
vn -0.2076 -0.9756 -0.0719
vn 0.9738 -0.1381 0.1808
vn -0.1838 0.9684 0.1683
vn -0.7214 -0.6907 0.0505
vn 0.7176 -0.6946 0.0507
vn 0.7640 -0.4815 0.4295
vn 0.8085 0.1355 0.5726
vn -0.7456 0.1951 0.6371
vn -0.3038 -0.6318 -0.7131
vn 0.9796 -0.1924 0.0575
vn -0.2691 0.3602 0.8932
vn -0.8083 -0.4419 -0.3890
vn 0.7609 -0.4837 -0.4325
vn 0.3080 0.3477 0.8856
vn -0.9822 -0.1141 0.1495
vn -0.8009 -0.5439 0.2505
vn -0.5684 -0.5636 0.5994
vn -0.2134 0.5048 -0.8364
vn 0.9736 -0.0439 -0.2242
vn -0.2474 -0.6321 0.7344
vn -0.7121 0.3067 -0.6316
vn 0.6433 0.3422 -0.6849
vn 0.1715 -0.6460 0.7438
vn -0.9706 -0.2307 0.0689
vn 0.2132 0.5048 -0.8365
vn -0.0000 -0.1921 -0.9814
vn -0.2804 0.7662 -0.5782
vn 0.9961 -0.0170 -0.0866
vn -0.2971 -0.8446 0.4454
vn -0.7705 0.4908 -0.4067
vn 0.7705 0.4908 -0.4067
vn 0.2971 -0.8446 0.4454
vn -0.9961 -0.0170 -0.0866
vn 0.2804 0.7662 -0.5782
vn 0.8009 -0.5439 0.2505
vn 0.0000 -1.0000 0.0000
vn -0.7507 0.3729 -0.5454
vn -0.9279 0.3729 0.0000
vn -0.7507 0.3729 0.5454
vn -0.2867 0.3729 0.8825
vn 0.2867 0.3729 0.8825
vn 0.7507 0.3729 0.5454
vn 0.2867 0.3729 -0.8825
vn 0.9279 0.3729 0.0000
vn 0.7507 0.3729 -0.5454
vn 0.8063 -0.3558 -0.4726
vn -0.2866 -0.3593 -0.8881
vn -0.2513 -0.5822 -0.7733
vn -0.7516 -0.3700 -0.5461
vn -0.7644 0.3277 0.5553
vn -0.2705 0.4834 0.8326
vn 0.3001 0.4847 0.8216
vn 0.8015 0.3154 0.5081
vn 0.3072 -0.5919 -0.7451
vn -0.8089 -0.0712 0.5836
vn -0.7936 0.2704 0.5450
vn 0.7685 0.2592 0.5850
vn 0.2776 -0.3578 -0.8916
vn 0.2664 0.4284 0.8634
vn 0.7740 -0.2375 -0.5870
vn -0.7863 -0.2374 -0.5705
vn -0.2973 0.4540 0.8399
vn 0.7575 -0.1410 0.6374
vn 0.2784 0.2989 -0.9128
vn 0.2479 -0.1173 0.9617
vn 0.7740 0.1919 -0.6034
vn -0.8041 0.1634 -0.5715
vn -0.3089 -0.0565 0.9494
vn -0.3026 0.2888 -0.9083
vn 0.1838 0.9684 0.1683
vn 0.3066 0.7547 -0.5800
vn 0.3066 -0.7547 0.5800
vn -0.3067 -0.7547 0.5800
vn 0.3038 -0.6318 -0.7131
vn -0.9738 -0.1381 0.1808
vn 0.2076 -0.9756 -0.0719
vn 0.5904 0.7868 0.1801
vn -0.7965 0.5661 0.2122
vn -0.2655 -0.9600 -0.0890
vn 0.9688 0.1752 0.1752
vn -0.2795 0.9426 0.1827
vn -0.7176 -0.6946 0.0506
vn 0.7214 -0.6907 0.0505
vn 0.5684 -0.5636 0.5994
vn 0.7456 0.1951 0.6371
vn -0.8085 0.1355 0.5726
vn -0.2822 -0.6390 -0.7156
vn 0.9822 -0.1141 0.1495
vn -0.3080 0.3477 0.8856
vn -0.7609 -0.4837 -0.4325
vn 0.8083 -0.4419 -0.3890
vn 0.2691 0.3602 0.8932
vn -0.9796 -0.1924 0.0575
vn -0.7640 -0.4815 0.4295
vn -0.2132 0.5048 -0.8365
vn 0.9706 -0.2307 0.0689
vn -0.1715 -0.6460 0.7438
vn -0.6433 0.3422 -0.6849
vn 0.7121 0.3067 -0.6316
vn 0.2474 -0.6321 0.7344
vn -0.9736 -0.0439 -0.2242
vn 0.2134 0.5048 -0.8364
usemtl None
s off
f 2/1/1 3/2/1 1/3/1
f 4/4/2 5/5/2 3/2/2
f 6/6/3 7/7/3 5/5/3
f 8/8/4 9/9/4 7/7/4
f 10/10/5 11/11/5 9/9/5
f 12/12/6 13/13/6 11/11/6
f 14/14/7 15/15/7 13/13/7
f 16/16/8 17/17/8 15/15/8
f 4/4/9 23/18/9 6/6/9
f 18/19/10 19/20/10 17/17/10
f 20/21/11 1/22/11 19/20/11
f 1/22/12 110/23/12 19/20/12
f 22/24/13 40/25/13 32/26/13
f 2/27/14 30/28/14 22/24/14
f 20/21/15 29/29/15 30/28/15
f 18/19/8 28/30/8 29/29/8
f 16/16/16 27/31/16 28/30/16
f 14/14/17 26/32/17 27/31/17
f 10/10/18 26/32/18 12/12/18
f 8/8/19 25/33/19 10/10/19
f 2/1/20 21/34/20 4/4/20
f 6/6/3 24/35/3 8/8/3
f 38/36/21 47/37/21 48/38/21
f 28/30/22 37/39/22 38/36/22
f 24/35/23 35/40/23 25/33/23
f 22/41/24 31/42/24 21/34/24
f 29/29/8 38/36/8 39/43/8
f 25/33/25 36/44/25 26/32/25
f 21/34/26 33/45/26 23/18/26
f 30/28/27 39/43/27 40/25/27
f 27/31/28 36/44/28 37/39/28
f 23/18/3 34/46/3 24/35/3
f 45/47/29 54/48/29 55/49/29
f 34/46/30 45/47/30 35/40/30
f 32/50/31 41/51/31 31/42/31
f 39/43/8 48/38/8 49/52/8
f 35/40/32 46/53/32 36/44/32
f 31/42/33 43/54/33 33/45/33
f 40/25/34 49/52/34 50/55/34
f 37/39/35 46/53/35 47/37/35
f 33/45/3 44/56/3 34/46/3
f 32/26/36 50/55/36 42/57/36
f 51/58/37 62/59/37 61/60/37
f 41/51/38 52/61/38 51/58/38
f 48/38/8 59/62/8 49/52/8
f 46/53/39 55/49/39 56/63/39
f 43/54/40 51/58/40 53/64/40
f 49/52/41 60/65/41 50/55/41
f 46/53/42 57/66/42 47/37/42
f 44/56/3 53/64/3 54/48/3
f 50/55/43 52/67/43 42/57/43
f 47/37/44 58/68/44 48/38/44
f 66/69/45 75/70/45 76/71/45
f 58/68/46 69/72/46 59/62/46
f 56/63/47 65/73/47 66/69/47
f 53/64/48 61/60/48 63/74/48
f 59/62/49 70/75/49 60/65/49
f 56/63/50 67/76/50 57/66/50
f 54/48/51 63/74/51 64/77/51
f 60/65/52 62/78/52 52/67/52
f 57/66/53 68/79/53 58/68/53
f 55/49/54 64/77/54 65/73/54
f 73/80/55 81/81/55 83/82/55
f 63/74/56 71/83/56 73/80/56
f 69/72/57 80/84/57 70/75/57
f 66/69/58 77/85/58 67/76/58
f 64/77/59 73/80/59 74/86/59
f 70/75/60 72/87/60 62/78/60
f 67/76/61 78/88/61 68/79/61
f 65/73/62 74/86/62 75/70/62
f 61/60/63 72/89/63 71/83/63
f 68/79/64 79/90/64 69/72/64
f 90/91/65 99/92/65 100/93/65
f 79/90/66 90/91/66 80/84/66
f 76/71/67 87/94/67 77/85/67
f 74/86/68 83/82/68 84/95/68
f 72/87/69 90/91/69 82/96/69
f 77/85/70 88/97/70 78/88/70
f 75/70/71 84/95/71 85/98/71
f 72/89/72 81/81/72 71/83/72
f 78/88/73 89/99/73 79/90/73
f 76/71/74 85/98/74 86/100/74
f 92/101/75 99/102/75 95/103/75
f 87/94/76 96/104/76 97/105/76
f 83/82/77 94/106/77 84/95/77
f 82/96/78 100/93/78 92/107/78
f 88/97/79 97/105/79 98/108/79
f 84/95/80 95/109/80 85/98/80
f 82/110/81 91/111/81 81/81/81
f 89/99/82 98/108/82 99/92/82
f 85/98/83 96/104/83 86/100/83
f 81/81/84 93/112/84 83/82/84
f 104/113/85 108/114/85 110/115/85
f 19/20/86 109/116/86 17/17/86
f 17/17/87 108/117/87 15/15/87
f 13/13/88 108/117/88 107/118/88
f 13/13/89 106/119/89 11/11/89
f 11/11/90 105/120/90 9/9/90
f 7/7/91 105/120/91 104/121/91
f 3/2/92 101/122/92 1/3/92
f 7/7/93 103/123/93 5/5/93
f 5/5/94 102/124/94 3/2/94
f 2/1/1 4/4/1 3/2/1
f 4/4/2 6/6/2 5/5/2
f 6/6/3 8/8/3 7/7/3
f 8/8/4 10/10/4 9/9/4
f 10/10/5 12/12/5 11/11/5
f 12/12/6 14/14/6 13/13/6
f 14/14/7 16/16/7 15/15/7
f 16/16/8 18/19/8 17/17/8
f 4/4/95 21/34/95 23/18/95
f 18/19/10 20/21/10 19/20/10
f 20/21/11 2/27/11 1/22/11
f 1/22/12 101/125/12 110/23/12
f 22/24/96 30/28/96 40/25/96
f 2/27/97 20/21/97 30/28/97
f 20/21/98 18/19/98 29/29/98
f 18/19/8 16/16/8 28/30/8
f 16/16/99 14/14/99 27/31/99
f 14/14/100 12/12/100 26/32/100
f 10/10/101 25/33/101 26/32/101
f 8/8/102 24/35/102 25/33/102
f 2/1/103 22/41/103 21/34/103
f 6/6/3 23/18/3 24/35/3
f 38/36/104 37/39/104 47/37/104
f 28/30/105 27/31/105 37/39/105
f 24/35/106 34/46/106 35/40/106
f 22/41/107 32/50/107 31/42/107
f 29/29/8 28/30/8 38/36/8
f 25/33/108 35/40/108 36/44/108
f 21/34/109 31/42/109 33/45/109
f 30/28/110 29/29/110 39/43/110
f 27/31/111 26/32/111 36/44/111
f 23/18/3 33/45/3 34/46/3
f 45/47/29 44/56/29 54/48/29
f 34/46/112 44/56/112 45/47/112
f 32/50/113 42/126/113 41/51/113
f 39/43/8 38/36/8 48/38/8
f 35/40/114 45/47/114 46/53/114
f 31/42/115 41/51/115 43/54/115
f 40/25/116 39/43/116 49/52/116
f 37/39/117 36/44/117 46/53/117
f 33/45/3 43/54/3 44/56/3
f 32/26/118 40/25/118 50/55/118
f 51/58/119 52/61/119 62/59/119
f 41/51/120 42/126/120 52/61/120
f 48/38/8 58/68/8 59/62/8
f 46/53/121 45/47/121 55/49/121
f 43/54/40 41/51/40 51/58/40
f 49/52/41 59/62/41 60/65/41
f 46/53/122 56/63/122 57/66/122
f 44/56/3 43/54/3 53/64/3
f 50/55/43 60/65/43 52/67/43
f 47/37/44 57/66/44 58/68/44
f 66/69/123 65/73/123 75/70/123
f 58/68/124 68/79/124 69/72/124
f 56/63/125 55/49/125 65/73/125
f 53/64/126 51/58/126 61/60/126
f 59/62/127 69/72/127 70/75/127
f 56/63/128 66/69/128 67/76/128
f 54/48/129 53/64/129 63/74/129
f 60/65/130 70/75/130 62/78/130
f 57/66/131 67/76/131 68/79/131
f 55/49/132 54/48/132 64/77/132
f 73/80/133 71/83/133 81/81/133
f 63/74/134 61/60/134 71/83/134
f 69/72/135 79/90/135 80/84/135
f 66/69/136 76/71/136 77/85/136
f 64/77/137 63/74/137 73/80/137
f 70/75/138 80/84/138 72/87/138
f 67/76/139 77/85/139 78/88/139
f 65/73/140 64/77/140 74/86/140
f 61/60/141 62/59/141 72/89/141
f 68/79/142 78/88/142 79/90/142
f 90/91/65 89/99/65 99/92/65
f 79/90/143 89/99/143 90/91/143
f 76/71/144 86/100/144 87/94/144
f 74/86/145 73/80/145 83/82/145
f 72/87/146 80/84/146 90/91/146
f 77/85/147 87/94/147 88/97/147
f 75/70/148 74/86/148 84/95/148
f 72/89/149 82/110/149 81/81/149
f 78/88/150 88/97/150 89/99/150
f 76/71/151 75/70/151 85/98/151
f 93/127/75 91/128/75 92/101/75
f 92/101/75 100/129/75 99/102/75
f 99/102/75 98/130/75 97/131/75
f 97/131/75 96/132/75 99/102/75
f 96/132/75 95/103/75 99/102/75
f 95/103/75 94/133/75 93/127/75
f 93/127/75 92/101/75 95/103/75
f 87/94/76 86/100/76 96/104/76
f 83/82/77 93/112/77 94/106/77
f 82/96/78 90/91/78 100/93/78
f 88/97/79 87/94/79 97/105/79
f 84/95/80 94/106/80 95/109/80
f 82/110/81 92/134/81 91/111/81
f 89/99/82 88/97/82 98/108/82
f 85/98/83 95/109/83 96/104/83
f 81/81/84 91/111/84 93/112/84
f 110/115/85 101/135/85 104/113/85
f 101/135/85 102/136/85 104/113/85
f 102/136/85 103/137/85 104/113/85
f 104/113/85 105/138/85 106/139/85
f 106/139/85 107/140/85 104/113/85
f 107/140/85 108/114/85 104/113/85
f 108/114/85 109/141/85 110/115/85
f 19/20/86 110/23/86 109/116/86
f 17/17/87 109/116/87 108/117/87
f 13/13/88 15/15/88 108/117/88
f 13/13/89 107/118/89 106/119/89
f 11/11/90 106/119/90 105/120/90
f 7/7/91 9/9/91 105/120/91
f 3/2/92 102/124/92 101/122/92
f 7/7/93 104/121/93 103/123/93
f 5/5/94 103/123/94 102/124/94
